<svg width="16" height="17" viewBox="0 0 16 17" fill="none" xmlns="http://www.w3.org/2000/svg">
<path fill-rule="evenodd" clip-rule="evenodd" d="M5 7C5 6.17157 5.67157 5.5 6.5 5.5H14.5C15.3284 5.5 16 6.17157 16 7V15C16 15.8284 15.3284 16.5 14.5 16.5H6.5C5.67157 16.5 5 15.8284 5 15V7ZM6.5 6.5C6.22386 6.5 6 6.72386 6 7V15C6 15.2761 6.22386 15.5 6.5 15.5H14.5C14.7761 15.5 15 15.2761 15 15V7C15 6.72386 14.7761 6.5 14.5 6.5H6.5Z" fill="#262626"/>
<path fill-rule="evenodd" clip-rule="evenodd" d="M5 9C5 8.72386 5.22386 8.5 5.5 8.5H8C8.27614 8.5 8.5 8.72386 8.5 9C8.5 9.27614 8.27614 9.5 8 9.5H5.5C5.22386 9.5 5 9.27614 5 9Z" fill="#262626"/>
<path fill-rule="evenodd" clip-rule="evenodd" d="M5 14C5 13.7239 5.22386 13.5 5.5 13.5H8.5C8.77614 13.5 9 13.7239 9 14V16C9 16.2761 8.77614 16.5 8.5 16.5C8.22386 16.5 8 16.2761 8 16V14.5H5.5C5.22386 14.5 5 14.2761 5 14Z" fill="#262626"/>
<path fill-rule="evenodd" clip-rule="evenodd" d="M12 13C12 12.7239 12.2239 12.5 12.5 12.5H15.5C15.7761 12.5 16 12.7239 16 13C16 13.2761 15.7761 13.5 15.5 13.5H12.5C12.2239 13.5 12 13.2761 12 13Z" fill="#262626"/>
<path fill-rule="evenodd" clip-rule="evenodd" d="M12 5.5C12.2761 5.5 12.5 5.72386 12.5 6V8H15.5C15.7761 8 16 8.22386 16 8.5C16 8.77614 15.7761 9 15.5 9H12C11.7239 9 11.5 8.77614 11.5 8.5V6C11.5 5.72386 11.7239 5.5 12 5.5Z" fill="#262626"/>
<path fill-rule="evenodd" clip-rule="evenodd" d="M10 5.5C10.2761 5.5 10.5 5.72386 10.5 6V11.5C10.5 11.7761 10.2761 12 10 12H7.5C7.22386 12 7 11.7761 7 11.5C7 11.2239 7.22386 11 7.5 11H9.5V6C9.5 5.72386 9.72386 5.5 10 5.5Z" fill="#262626"/>
<path fill-rule="evenodd" clip-rule="evenodd" d="M2 3.5C2.27614 3.5 2.5 3.72386 2.5 4V16C2.5 16.2761 2.27614 16.5 2 16.5C1.72386 16.5 1.5 16.2761 1.5 16V4C1.5 3.72386 1.72386 3.5 2 3.5Z" fill="#262626"/>
<path fill-rule="evenodd" clip-rule="evenodd" d="M0.146447 14.1464C0.341709 13.9512 0.658291 13.9512 0.853553 14.1464L2 15.2929L3.14645 14.1464C3.34171 13.9512 3.65829 13.9512 3.85355 14.1464C4.04882 14.3417 4.04882 14.6583 3.85355 14.8536L2.35355 16.3536C2.15829 16.5488 1.84171 16.5488 1.64645 16.3536L0.146447 14.8536C-0.0488155 14.6583 -0.0488155 14.3417 0.146447 14.1464Z" fill="#262626"/>
<path fill-rule="evenodd" clip-rule="evenodd" d="M1.64645 3.64645C1.84171 3.45118 2.15829 3.45118 2.35355 3.64645L3.85355 5.14645C4.04882 5.34171 4.04882 5.65829 3.85355 5.85355C3.65829 6.04882 3.34171 6.04882 3.14645 5.85355L2 4.70711L0.853553 5.85355C0.658291 6.04882 0.341709 6.04882 0.146447 5.85355C-0.0488155 5.65829 -0.0488155 5.34171 0.146447 5.14645L1.64645 3.64645Z" fill="#262626"/>
<path fill-rule="evenodd" clip-rule="evenodd" d="M3 2.5C3 2.22386 3.22386 2 3.5 2H15.5C15.7761 2 16 2.22386 16 2.5C16 2.77614 15.7761 3 15.5 3H3.5C3.22386 3 3 2.77614 3 2.5Z" fill="#262626"/>
<path fill-rule="evenodd" clip-rule="evenodd" d="M5.35355 0.646447C5.54882 0.841709 5.54882 1.15829 5.35355 1.35355L4.20711 2.5L5.35355 3.64645C5.54882 3.84171 5.54882 4.15829 5.35355 4.35355C5.15829 4.54882 4.84171 4.54882 4.64645 4.35355L3.14645 2.85355C2.95118 2.65829 2.95118 2.34171 3.14645 2.14645L4.64645 0.646447C4.84171 0.451184 5.15829 0.451184 5.35355 0.646447Z" fill="#262626"/>
<path fill-rule="evenodd" clip-rule="evenodd" d="M13.6464 0.646447C13.8417 0.451184 14.1583 0.451184 14.3536 0.646447L15.8536 2.14645C16.0488 2.34171 16.0488 2.65829 15.8536 2.85355L14.3536 4.35355C14.1583 4.54882 13.8417 4.54882 13.6464 4.35355C13.4512 4.15829 13.4512 3.84171 13.6464 3.64645L14.7929 2.5L13.6464 1.35355C13.4512 1.15829 13.4512 0.841709 13.6464 0.646447Z" fill="#262626"/>
<path fill-rule="evenodd" clip-rule="evenodd" d="M12.5 11C12.7761 11 13 11.2239 13 11.5V16C13 16.2761 12.7761 16.5 12.5 16.5C12.2239 16.5 12 16.2761 12 16V11.5C12 11.2239 12.2239 11 12.5 11Z" fill="#262626"/>
</svg>
