<svg width="24" height="24" viewBox="0 0 24 24" fill="none" xmlns="http://www.w3.org/2000/svg">
<path fill-rule="evenodd" clip-rule="evenodd" d="M3.75 23.25C5.40685 23.25 6.75 21.9069 6.75 20.25C6.75 18.5931 5.40685 17.25 3.75 17.25C2.09315 17.25 0.75 18.5931 0.75 20.25C0.75 21.9069 2.09315 23.25 3.75 23.25Z" stroke="#641B1E" stroke-width="1.5" stroke-linecap="round" stroke-linejoin="round"/>
<path d="M0.75 20.25V3.75C0.75 2.09315 2.09315 0.75 3.75 0.75C5.40685 0.75 6.75 2.09315 6.75 3.75V20.25" stroke="#641B1E" stroke-width="1.5" stroke-linecap="round" stroke-linejoin="round"/>
<path d="M3.75 23.25H21.75C22.5784 23.25 23.25 22.5784 23.25 21.75V6C23.25 5.17157 22.5784 4.5 21.75 4.5H6.75" stroke="#641B1E" stroke-width="1.5" stroke-linecap="round" stroke-linejoin="round"/>
<path fill-rule="evenodd" clip-rule="evenodd" d="M12 18.75H18V9C18 8.58579 17.6642 8.25 17.25 8.25H12.75C12.3358 8.25 12 8.58579 12 9V18.75Z" stroke="#641B1E" stroke-width="1.5" stroke-linecap="round" stroke-linejoin="round"/>
<path d="M15 12H18" stroke="#641B1E" stroke-width="1.5" stroke-linecap="round" stroke-linejoin="round"/>
<path d="M15 15H18" stroke="#641B1E" stroke-width="1.5" stroke-linecap="round" stroke-linejoin="round"/>
<path d="M19.5 18.75H18" stroke="#641B1E" stroke-width="1.5" stroke-linecap="round" stroke-linejoin="round"/>
<path d="M12 18.75H10.5" stroke="#641B1E" stroke-width="1.5" stroke-linecap="round" stroke-linejoin="round"/>
</svg>
