<svg width="16" height="16" viewBox="0 0 16 16" fill="none" xmlns="http://www.w3.org/2000/svg">
<path fill-rule="evenodd" clip-rule="evenodd" d="M2.79289 1.79289C2.98043 1.60536 3.23478 1.5 3.5 1.5H9.5C9.63261 1.5 9.75979 1.55268 9.85355 1.64645L13.3536 5.14645C13.4473 5.24021 13.5 5.36739 13.5 5.5V13.5C13.5 13.7652 13.3946 14.0196 13.2071 14.2071C13.0196 14.3946 12.7652 14.5 12.5 14.5H3.5C3.23478 14.5 2.98043 14.3946 2.79289 14.2071C2.60536 14.0196 2.5 13.7652 2.5 13.5V2.5C2.5 2.23478 2.60536 1.98043 2.79289 1.79289ZM9.29289 2.5L3.5 2.5L3.5 13.5H12.5V5.70711L9.29289 2.5Z" fill="black"/>
<path fill-rule="evenodd" clip-rule="evenodd" d="M9.5 1.5C9.77614 1.5 10 1.72386 10 2V5H13C13.2761 5 13.5 5.22386 13.5 5.5C13.5 5.77614 13.2761 6 13 6H9.5C9.22386 6 9 5.77614 9 5.5V2C9 1.72386 9.22386 1.5 9.5 1.5Z" fill="black"/>
</svg>
