<svg width="16" height="16" viewBox="0 0 16 16" fill="none" xmlns="http://www.w3.org/2000/svg">
<path fill-rule="evenodd" clip-rule="evenodd" d="M0 13.5C0 12.1193 1.11929 11 2.5 11C3.88071 11 5 12.1193 5 13.5C5 14.8807 3.88071 16 2.5 16C1.11929 16 0 14.8807 0 13.5ZM2.5 12C1.67157 12 1 12.6716 1 13.5C1 14.3284 1.67157 15 2.5 15C3.32843 15 4 14.3284 4 13.5C4 12.6716 3.32843 12 2.5 12Z" fill="#641B1E"/>
<path fill-rule="evenodd" clip-rule="evenodd" d="M2.5 1C1.67157 1 1 1.67157 1 2.5V13.5C1 13.7761 0.776142 14 0.5 14C0.223858 14 0 13.7761 0 13.5V2.5C0 1.11929 1.11929 0 2.5 0C3.88071 0 5 1.11929 5 2.5V13.5C5 13.7761 4.77614 14 4.5 14C4.22386 14 4 13.7761 4 13.5V2.5C4 1.67157 3.32843 1 2.5 1Z" fill="#641B1E"/>
<path fill-rule="evenodd" clip-rule="evenodd" d="M4 3C4 2.72386 4.22386 2.5 4.5 2.5H14.5C15.3284 2.5 16 3.17157 16 4V14.5C16 15.3284 15.3284 16 14.5 16H2.5C2.22386 16 2 15.7761 2 15.5C2 15.2239 2.22386 15 2.5 15H14.5C14.7761 15 15 14.7761 15 14.5V4C15 3.72386 14.7761 3.5 14.5 3.5H4.5C4.22386 3.5 4 3.27614 4 3Z" fill="#641B1E"/>
<path fill-rule="evenodd" clip-rule="evenodd" d="M8 7.66666C8.27614 7.66666 8.5 7.89051 8.5 8.16666V11.5H11.5V8.16666C11.5 7.89051 11.7239 7.66666 12 7.66666C12.2761 7.66666 12.5 7.89051 12.5 8.16666V12C12.5 12.2761 12.2761 12.5 12 12.5H8C7.72386 12.5 7.5 12.2761 7.5 12V8.16666C7.5 7.89051 7.72386 7.66666 8 7.66666Z" fill="#641B1E"/>
<path fill-rule="evenodd" clip-rule="evenodd" d="M9.67992 6.11589C9.86534 5.96137 10.1347 5.96137 10.3201 6.11589L13.3201 8.61589C13.5322 8.79267 13.5609 9.10795 13.3841 9.32009C13.2073 9.53223 12.8921 9.56089 12.6799 9.38411L10 7.15085L7.3201 9.38411C7.10797 9.56089 6.79268 9.53223 6.6159 9.32009C6.43912 9.10795 6.46778 8.79267 6.67992 8.61589L9.67992 6.11589Z" fill="#641B1E"/>
</svg>
