<svg width="16" height="16" viewBox="0 0 16 16" fill="none" xmlns="http://www.w3.org/2000/svg">
<path fill-rule="evenodd" clip-rule="evenodd" d="M0 13.5C0 12.1193 1.11929 11 2.5 11C3.88071 11 5 12.1193 5 13.5C5 14.8807 3.88071 16 2.5 16C1.11929 16 0 14.8807 0 13.5ZM2.5 12C1.67157 12 1 12.6716 1 13.5C1 14.3284 1.67157 15 2.5 15C3.32843 15 4 14.3284 4 13.5C4 12.6716 3.32843 12 2.5 12Z" fill="#641B1E"/>
<path fill-rule="evenodd" clip-rule="evenodd" d="M2.5 1C1.67157 1 1 1.67157 1 2.5V13.5C1 13.7761 0.776142 14 0.5 14C0.223858 14 0 13.7761 0 13.5V2.5C0 1.11929 1.11929 0 2.5 0C3.88071 0 5 1.11929 5 2.5V13.5C5 13.7761 4.77614 14 4.5 14C4.22386 14 4 13.7761 4 13.5V2.5C4 1.67157 3.32843 1 2.5 1Z" fill="#641B1E"/>
<path fill-rule="evenodd" clip-rule="evenodd" d="M4 3C4 2.72386 4.22386 2.5 4.5 2.5H14.5C15.3284 2.5 16 3.17157 16 4V14.5C16 15.3284 15.3284 16 14.5 16H2.5C2.22386 16 2 15.7761 2 15.5C2 15.2239 2.22386 15 2.5 15H14.5C14.7761 15 15 14.7761 15 14.5V4C15 3.72386 14.7761 3.5 14.5 3.5H4.5C4.22386 3.5 4 3.27614 4 3Z" fill="#641B1E"/>
<path fill-rule="evenodd" clip-rule="evenodd" d="M7.5 6C7.5 5.44772 7.94772 5 8.5 5H11.5C12.0523 5 12.5 5.44772 12.5 6V12.5C12.5 12.7761 12.2761 13 12 13H8C7.72386 13 7.5 12.7761 7.5 12.5V6ZM11.5 6H8.5V12H11.5V6Z" fill="#641B1E"/>
<path fill-rule="evenodd" clip-rule="evenodd" d="M9.5 8C9.5 7.72386 9.72386 7.5 10 7.5H12C12.2761 7.5 12.5 7.72386 12.5 8C12.5 8.27614 12.2761 8.5 12 8.5H10C9.72386 8.5 9.5 8.27614 9.5 8Z" fill="#641B1E"/>
<path fill-rule="evenodd" clip-rule="evenodd" d="M9.5 10C9.5 9.72386 9.72386 9.5 10 9.5H12C12.2761 9.5 12.5 9.72386 12.5 10C12.5 10.2761 12.2761 10.5 12 10.5H10C9.72386 10.5 9.5 10.2761 9.5 10Z" fill="#641B1E"/>
<path d="M13 12.5H12" stroke="#641B1E" stroke-width="1.5" stroke-linecap="round" stroke-linejoin="round"/>
<path d="M8 12.5H7" stroke="#641B1E" stroke-width="1.5" stroke-linecap="round" stroke-linejoin="round"/>
</svg>
