<svg width="16" height="16" viewBox="0 0 16 16" fill="none" xmlns="http://www.w3.org/2000/svg">
<path fill-rule="evenodd" clip-rule="evenodd" d="M3.66667 1.48C3.55519 1.48 3.5 1.56172 3.5 1.62V14.88H12.5V1.62C12.5 1.56172 12.4448 1.48 12.3333 1.48H3.66667ZM2.5 1.62C2.5 0.971354 3.04177 0.48 3.66667 0.48H12.3333C12.9582 0.48 13.5 0.971354 13.5 1.62V15.38C13.5 15.6561 13.2761 15.88 13 15.88H3C2.72386 15.88 2.5 15.6561 2.5 15.38V1.62Z" fill="#262626"/>
<path d="M10.5 7.94C10.6381 7.94 10.75 8.04745 10.75 8.18" stroke="#262626" stroke-width="1.5" stroke-linecap="round" stroke-linejoin="round"/>
<path d="M10.25 8.18C10.25 8.04745 10.3619 7.94 10.5 7.94" stroke="#262626" stroke-width="1.5" stroke-linecap="round" stroke-linejoin="round"/>
<path d="M10.5 8.42C10.3619 8.42 10.25 8.31255 10.25 8.18" stroke="#262626" stroke-width="1.5" stroke-linecap="round" stroke-linejoin="round"/>
<path fill-rule="evenodd" clip-rule="evenodd" d="M10.75 7.68C11.0261 7.68 11.25 7.90386 11.25 8.18C11.25 8.60773 10.8948 8.92 10.5 8.92C10.2239 8.92 10 8.69614 10 8.42C10 8.21492 10.1235 8.03868 10.3001 7.96155C10.3812 7.79487 10.5522 7.68 10.75 7.68Z" fill="#262626"/>
<path fill-rule="evenodd" clip-rule="evenodd" d="M0.5 15.38C0.5 15.1039 0.723858 14.88 1 14.88H15C15.2761 14.88 15.5 15.1039 15.5 15.38C15.5 15.6561 15.2761 15.88 15 15.88H1C0.723858 15.88 0.5 15.6561 0.5 15.38Z" fill="#262626"/>
</svg>
