<svg width="20" height="21" viewBox="0 0 20 21" fill="none" xmlns="http://www.w3.org/2000/svg">
<path fill-rule="evenodd" clip-rule="evenodd" d="M3.125 7.10001C3.125 5.07417 4.82822 3.47501 6.875 3.47501C8.92178 3.47501 10.625 5.07417 10.625 7.10001C10.625 9.12584 8.92178 10.725 6.875 10.725C4.82822 10.725 3.125 9.12584 3.125 7.10001ZM6.875 4.72501C5.47 4.72501 4.375 5.81213 4.375 7.10001C4.375 8.38788 5.47 9.47501 6.875 9.47501C8.28 9.47501 9.375 8.38788 9.375 7.10001C9.375 5.81213 8.28 4.72501 6.875 4.72501Z" fill="#262626"/>
<path fill-rule="evenodd" clip-rule="evenodd" d="M6.87512 1.75002C3.76852 1.75002 1.25012 4.26841 1.25012 7.37502C1.25012 7.96363 1.47759 8.85048 1.8933 9.9416C2.30178 11.0138 2.86593 12.2179 3.48256 13.4155C4.71588 15.8108 6.1363 18.1362 6.87506 19.2494L6.87544 19.25C7.22041 19.2502 7.50005 19.5299 7.50012 19.8749C7.50019 20.2201 7.22043 20.4999 6.87525 20.5C6.45593 20.5001 6.06456 20.2898 5.8332 19.9401C5.07105 18.7915 3.62711 16.4268 2.37122 13.9877C1.74317 12.7679 1.15643 11.5185 0.725202 10.3866C0.301194 9.27372 0.00012207 8.20599 0.00012207 7.37502C0.00012207 3.57806 3.07816 0.500015 6.87512 0.500015C10.6721 0.500015 13.7501 3.57806 13.7501 7.37502C13.7501 7.72019 13.4703 8.00002 13.1251 8.00002C12.7799 8.00002 12.5001 7.72019 12.5001 7.37502C12.5001 4.26841 9.98172 1.75002 6.87512 1.75002Z" fill="#262626"/>
<path fill-rule="evenodd" clip-rule="evenodd" d="M10 13.125V18.475H14.375V13.125H10ZM8.75 12.9C8.75 12.3101 9.24066 11.875 9.79167 11.875H14.5833C15.1343 11.875 15.625 12.3101 15.625 12.9V19.1C15.625 19.4451 15.3452 19.725 15 19.725H9.375C9.02982 19.725 8.75 19.4451 8.75 19.1V12.9Z" fill="#262626"/>
<path fill-rule="evenodd" clip-rule="evenodd" d="M11.875 8.30001C11.875 7.59966 12.4589 7.07501 13.125 7.07501H18.75C19.4161 7.07501 20 7.59966 20 8.30001V19.1C20 19.4452 19.7202 19.725 19.375 19.725H15C14.6548 19.725 14.375 19.4452 14.375 19.1C14.375 18.7548 14.6548 18.475 15 18.475H18.75V8.32501H13.125V12.5C13.125 12.8452 12.8452 13.125 12.5 13.125C12.1548 13.125 11.875 12.8452 11.875 12.5V8.30001Z" fill="#262626"/>
<path fill-rule="evenodd" clip-rule="evenodd" d="M7.5 19.1C7.5 18.7548 7.77982 18.475 8.125 18.475H9.375C9.72018 18.475 10 18.7548 10 19.1C10 19.4452 9.72018 19.725 9.375 19.725H8.125C7.77982 19.725 7.5 19.4452 7.5 19.1Z" fill="#262626"/>
<path fill-rule="evenodd" clip-rule="evenodd" d="M11.875 14.9C11.875 14.5548 12.1548 14.275 12.5 14.275H15C15.3452 14.275 15.625 14.5548 15.625 14.9C15.625 15.2452 15.3452 15.525 15 15.525H12.5C12.1548 15.525 11.875 15.2452 11.875 14.9Z" fill="#262626"/>
<path fill-rule="evenodd" clip-rule="evenodd" d="M16.875 10.1C16.875 9.75484 17.1548 9.47502 17.5 9.47502H19.375C19.7202 9.47502 20 9.75484 20 10.1C20 10.4452 19.7202 10.725 19.375 10.725H17.5C17.1548 10.725 16.875 10.4452 16.875 10.1Z" fill="#262626"/>
<path fill-rule="evenodd" clip-rule="evenodd" d="M16.875 12.5C16.875 12.1548 17.1548 11.875 17.5 11.875H19.375C19.7202 11.875 20 12.1548 20 12.5C20 12.8451 19.7202 13.125 19.375 13.125H17.5C17.1548 13.125 16.875 12.8451 16.875 12.5Z" fill="#262626"/>
</svg>
