<svg width="20" height="21" viewBox="0 0 20 21" fill="none" xmlns="http://www.w3.org/2000/svg">
<path fill-rule="evenodd" clip-rule="evenodd" d="M3.125 7.09961C3.125 5.07378 4.82822 3.47461 6.875 3.47461C8.92178 3.47461 10.625 5.07378 10.625 7.09961C10.625 9.12544 8.92178 10.7246 6.875 10.7246C4.82822 10.7246 3.125 9.12544 3.125 7.09961ZM6.875 4.72461C5.47 4.72461 4.375 5.81173 4.375 7.09961C4.375 8.38748 5.47 9.47461 6.875 9.47461C8.28 9.47461 9.375 8.38748 9.375 7.09961C9.375 5.81173 8.28 4.72461 6.875 4.72461Z" fill="#262626"/>
<path fill-rule="evenodd" clip-rule="evenodd" d="M6.875 1.75C3.7684 1.75 1.25 4.2684 1.25 7.375C1.25 7.96361 1.47747 8.85046 1.89318 9.94159C2.30166 11.0138 2.86581 12.2179 3.48244 13.4155C4.71575 15.8108 6.13618 18.1362 6.87493 19.2494L6.87532 19.25C7.22029 19.2502 7.49993 19.5298 7.5 19.8749C7.50007 20.22 7.22031 20.4999 6.87513 20.5C6.45581 20.5001 6.06444 20.2898 5.83308 19.9401C5.07092 18.7915 3.62699 16.4268 2.3711 13.9877C1.74304 12.7679 1.15631 11.5185 0.72508 10.3866C0.301071 9.2737 0 8.20597 0 7.375C0 3.57804 3.07804 0.5 6.875 0.5C10.672 0.5 13.75 3.57804 13.75 7.375C13.75 7.72018 13.4702 8 13.125 8C12.7798 8 12.5 7.72018 12.5 7.375C12.5 4.2684 9.9816 1.75 6.875 1.75Z" fill="#262626"/>
<path fill-rule="evenodd" clip-rule="evenodd" d="M10 13.125V18.475H14.375V13.125H10ZM8.75 12.9C8.75 12.3101 9.24066 11.875 9.79167 11.875H14.5833C15.1343 11.875 15.625 12.3101 15.625 12.9V19.1C15.625 19.4452 15.3452 19.725 15 19.725H9.375C9.02982 19.725 8.75 19.4452 8.75 19.1V12.9Z" fill="#262626"/>
<path fill-rule="evenodd" clip-rule="evenodd" d="M11.875 8.29922C11.875 7.59887 12.4589 7.07422 13.125 7.07422H18.75C19.4161 7.07422 20 7.59887 20 8.29922V19.0992C20 19.4444 19.7202 19.7242 19.375 19.7242H15C14.6548 19.7242 14.375 19.4444 14.375 19.0992C14.375 18.754 14.6548 18.4742 15 18.4742H18.75V8.32422H13.125V12.4992C13.125 12.8444 12.8452 13.1242 12.5 13.1242C12.1548 13.1242 11.875 12.8444 11.875 12.4992V8.29922Z" fill="#262626"/>
<path fill-rule="evenodd" clip-rule="evenodd" d="M7.5 19.0996C7.5 18.7544 7.77982 18.4746 8.125 18.4746H9.375C9.72018 18.4746 10 18.7544 10 19.0996C10 19.4448 9.72018 19.7246 9.375 19.7246H8.125C7.77982 19.7246 7.5 19.4448 7.5 19.0996Z" fill="#262626"/>
<path fill-rule="evenodd" clip-rule="evenodd" d="M11.875 14.9004C11.875 14.5552 12.1548 14.2754 12.5 14.2754H15C15.3452 14.2754 15.625 14.5552 15.625 14.9004C15.625 15.2456 15.3452 15.5254 15 15.5254H12.5C12.1548 15.5254 11.875 15.2456 11.875 14.9004Z" fill="#262626"/>
<path fill-rule="evenodd" clip-rule="evenodd" d="M16.875 10.0996C16.875 9.75443 17.1548 9.47461 17.5 9.47461H19.375C19.7202 9.47461 20 9.75443 20 10.0996C20 10.4448 19.7202 10.7246 19.375 10.7246H17.5C17.1548 10.7246 16.875 10.4448 16.875 10.0996Z" fill="#262626"/>
<path fill-rule="evenodd" clip-rule="evenodd" d="M16.875 12.5C16.875 12.1548 17.1548 11.875 17.5 11.875H19.375C19.7202 11.875 20 12.1548 20 12.5C20 12.8452 19.7202 13.125 19.375 13.125H17.5C17.1548 13.125 16.875 12.8452 16.875 12.5Z" fill="#262626"/>
</svg>
